<?xml version="1.0" encoding="UTF-8"?><svg id="Layer_2" xmlns="http://www.w3.org/2000/svg" viewBox="0 0 389.34 375.66"><defs><style>.cls-1{fill:#c5c5c5;}</style></defs><g id="Layer_1-2"><path class="cls-1" d="M243.03,280.4c-1.21-2.13-2.77-4.14-3.57-6.41-2.26-6.4-4.3-12.89-6.25-19.39-1.25-4.16-3.47-3.95-6.68-2.16-19.23,10.78-38.48,21.53-57.81,32.12-3.36,1.84-4.48,3.39-2.94,7.43,7.22,18.92,14.04,37.98,20.96,57.01,.63,1.72,.98,3.54,1.45,5.32-.64,.24-1.28,.48-1.92,.73-2.99-6.22-6.37-12.28-8.89-18.69-5.4-13.74-10.5-27.61-15.39-41.54-1.65-4.69-4.06-5.15-8.2-3.48-16.9,6.8-17.41,8.96-7.29,24.26,11.91,18,23.8,35.94,39.85,50.68,2.52,2.31,4.52,5.19,8.1,9.37-2.85-.64-5.65-.4-6.71-1.64-11.9-13.93-23.83-27.86-35.12-42.28-5.66-7.22-10.04-15.44-16.21-25.11-1.25,3.83-2.08,5.51-2.31,7.26-.42,3.15-.33,6.37-.72,9.52-1.73,13.92-8.75,17.52-21.08,10.9l-.02-1.89c2.53,.19,5.62-.49,7.47,.72,5.96,3.92,7.85,.11,9.08-4.37,1-3.61,1.1-7.47,1.88-13.27-10.75,8.99-21.13,14.16-34.16,10.39,14.91-.83,27.02-5.83,33.79-19.38-.39-.79-.78-1.57-1.17-2.36-42.68,18.18-85.36,36.37-128.04,54.55-.38-.62-.76-1.25-1.13-1.87,34.15-33.06,73.89-59.48,110.32-91.29-6.89-10.19-13.89-20.45-20.78-30.78-10.23-15.33-20.28-30.77-30.58-46.04-7.11-10.54-14.82-20.69-21.64-31.4-2.55-4.01-3.9-9.04-4.8-13.79-.86-4.57,2.09-6.85,6.14-4.33,6.29,3.93,12.96,7.88,17.84,13.28,9.54,10.57,17.91,22.19,26.87,33.3,15.5,19.23,28.49,39.95,37.84,62.87,.6,1.47,1.36,2.88,2.17,4.25,.31,.53,.97,.86,1.87,1.61,4.23-2.96,8.85-5.54,12.52-9.09,1.44-1.39,1.78-5.43,.87-7.5-7.26-16.64-14.75-33.19-22.54-49.58-6.51-13.7-13.81-27.02-20.16-40.79-2.02-4.39-2.77-9.67-2.83-14.56-.03-2.68,2.35-7.44,4.11-7.66,4.14-.53,9.49-.21,12.69,2.08,10.58,7.62,15.93,19.35,19.44,31.32,6.45,21.98,11.67,44.31,17.43,66.49,.9,3.45,1.92,6.87,3.13,11.15,11.32-8.36,21.82-16.18,32.41-23.9,7.9-5.76,15.81-11.52,23.89-17.02,3.87-2.63,4.69-5.68,3.15-9.91-4.42-12.16-8.47-24.46-13.3-36.45-.8-1.97-4.75-3.66-7.32-3.77-16.86-.72-32.86-4.26-47.08-13.65-9.9-6.53-14.97-21.04-11.83-32.4,6.37-23,19.89-41.44,36.43-58.18,12.43-12.57,26.51-22.67,41.58-31.69C219.59,2.35,232.31-1.11,245.67,.32c9.57,1.03,17.91,6.67,21.28,16.08,7.82,21.85,11.15,44.65,9.9,67.79-.84,15.59-3.5,31.09-5.49,46.62-.64,5,1.7,5.22,5.93,5.45,19.27,1.01,33.15-10.81,48.38-19.5,18.48-10.55,36.98-21.07,55.54-31.49,2-1.13,4.42-1.51,6.65-2.24,.49,.54,.98,1.08,1.47,1.62-2.13,3.12-4.27,6.23-5.26,7.68-4.43,.29-7.75-.47-9.89,.79-21.5,12.64-42.81,25.59-64.15,38.51-1.08,.65-1.89,1.75-3.71,3.47,6.05,1.14,11.07,1.89,16,3.07,4.38,1.04,8.88,2.05,12.9,3.96,5.05,2.39,6.94,6.68,5.58,12.49-2.75,11.78-9.53,21.09-17.82,29.34-24.49,24.4-52.83,43.64-82.73,60.69-4.04,2.3-3.64,5.14-2.64,8.65,2.48,8.66,4.88,17.34,7.31,26.01-.64,.37-1.28,.74-1.92,1.11Zm-26.89-141.97c14.77-1,29.19-2.15,43.63-2.85,4.29-.21,5.63-1.79,6.47-5.87,5.42-26.42,7.79-53.01,3.67-79.77-1.75-11.37-4.51-22.74-8.33-33.58-2.55-7.24-9-12.78-17.29-12.05-8.29,.72-16.35,3.73-24.59,5.34-18.27,3.58-29.73,17.68-43.47,28.13-11.05,8.39-19.71,19.2-26.22,31.53-4.95,9.38-10.55,18.58-14.17,28.47-4.99,13.65,.99,26.8,13.97,33.07,5.47,2.64,11.37,4.69,17.3,5.98,8.14,1.77,16.5,2.56,25.54,3.89-4.95-15.53-9.94-28.92-13.37-42.7-2.56-10.28-3.51-21.02-4.38-31.63-.43-5.2,.44-10.68,1.72-15.78,.75-2.99,2.98-6.19,5.49-7.93,1.26-.87,5.02,.8,6.96,2.24,2.3,1.7,4.69,4.11,5.61,6.71,4.96,14.11,10.32,28.16,13.9,42.64,3.51,14.24,5.05,28.98,7.56,44.17Zm18.39,105.56c2.95-1.7,4.78-2.57,6.42-3.72,19.11-13.4,38.43-26.52,57.2-40.38,15.55-11.49,29.84-24.26,36.2-43.67,2.22-6.77,2.15-9.7-4.68-11.28-9.21-2.14-18.72-3.47-28.16-3.93-4.66-.23-9.9,1.46-14.07,3.75-6.3,3.47-12.56,7.57-17.64,12.6-8.18,8.12-20.42,12.38-24.15,24.99-.35,1.17-4.98,2.5-6.38,1.67-5.43-3.23-8.21-.02-9.22,4.01-3.01,11.94-10.42,23.5-2.12,36.55,3.38,5.32,4.26,12.23,6.61,19.42Zm-121.76,25.65c-29.69,26.17-61.52,48.04-89.83,74.47,3.34,.1,6-.83,8.58-1.95,19.98-8.63,39.93-17.34,59.93-25.94,10.85-4.66,21.77-9.17,32.67-13.71,4.73-1.97,6.23-4.8,3.19-9.5-4.54-7.02-8.85-14.19-14.55-23.38ZM182.03,43.95c-1.3,10.07-4.33,19.01-3.11,27.32,2.26,15.42,6.8,30.54,10.81,45.67,1.74,6.57,4.44,12.9,6.84,19.29,2.28,6.05,7.36,2.86,11.23,2.86,1.02,0,3.02-3.12,2.9-4.68-1.79-24.32-6.97-47.99-15.27-70.89-2.45-6.77-4.09-14.48-13.4-19.56ZM38.9,145.76c-.71,.57-1.42,1.14-2.13,1.7,2.61,4.52,4.93,9.24,7.87,13.52,9.08,13.2,18.61,26.1,27.55,39.39,7.55,11.23,14.4,22.93,21.82,34.25,5.22,7.97,10.76,15.73,16.42,23.39,1.28,1.74,3.97,4.06,5.44,3.71,3.26-.79,4.9-3.05,3.04-7.23-7.64-17.22-15.19-34.43-26.93-49.42-8.51-10.87-16.17-22.47-25.32-32.75-8.48-9.54-18.44-17.76-27.75-26.56Zm176.52,58.89c-.54,.03-1.08,.06-1.62,.09-.73,2.26-1.42,4.54-2.19,6.79-2.33,6.85-4,14.05-7.2,20.46-4.72,9.44-7.06,10.05-17.95,7.78,0,3.49,.35,6.87-.08,10.15-.58,4.43-1.13,9.05-2.85,13.1-1.88,4.42-5.49,5.35-8.95,1.09-.77-.95-.93-2.41-1.37-3.63-.8,.52-1.61,1.03-2.41,1.54-.78,5.9-1.55,11.8-2.33,17.7,.6,.34,1.2,.68,1.8,1.02,18.41-10.61,36.81-21.24,55.24-31.8,3.55-2.03,4.42-4.29,2.62-8.32-2.01-4.51-2.78-9.55-4.44-14.23-2.6-7.3-5.5-14.5-8.27-21.74Zm-72.49,29.87l2.54-1.07c-4.53-19.09-8.22-38.43-13.86-57.19-4.08-13.58-10.34-26.58-16.48-39.42-1.89-3.96-6.17-7.33-10.15-9.56-3.35-1.88-7.03-1.87-7.82,4.46-1.02,8.17,.31,15.09,4.84,21.91,3.84,5.8,7.05,12.06,10.12,18.32,9.08,18.54,17.94,37.19,26.94,55.78,1.13,2.34,2.57,4.52,3.87,6.77Zm107-71.24c6.83-3.94,10.39-8.86,12.33-15.56,1.64-5.65-.27-7.05-5.45-6.69-11.58,.79-23.16,1.64-34.75,2.05-4.57,.16-5.82,1.95-5.77,6.24,.13,11.36-.14,22.73-.15,34.1,0,1.22,.67,2.44,1.02,3.63,6.79-1.77,9.88-5.94,9.86-12.47-.02-5.21-.3-10.43,.09-15.61,.11-1.45,2.18-2.76,3.35-4.13,.9,1.31,1.94,2.55,2.65,3.96,.38,.75-.08,1.94,.32,2.67,2.17,3.97-.6,11.24,6.52,11.68,4.44,.27,5.28-5.64,3.22-14.58-.82-3.56-.13-7.46-.13-11.2,1.11-.13,2.21-.26,3.32-.4,1.14,5.21,2.28,10.43,3.56,16.32Zm-115.75,133.97c9.99-10.24,14.42-40.49,7.53-48.12-4.05,3.11-8.48,5.92-12.09,9.55-1.6,1.61-2.44,4.99-2.1,7.35,1.12,7.8,2.89,15.51,4.49,23.23,.48,2.31,1.24,4.56,2.18,7.99Zm31.29-63.52c-.89-.54-1.79-1.07-2.68-1.61-4.3,4.33-11.92,8.41-12.26,13.03-.85,11.67,5.49,22.17,10.87,32.59,5.45-14.54,5.65-29.21,4.06-44.01Zm41.8-32.77c-6.88,4.94-13.84,9.76-20.53,14.93-1.06,.82-1.46,3.33-1.17,4.87,.74,4,1.75,8,3.19,11.8,1.75,4.61,4.88,5.24,8.24,1.51,8.27-9.21,8.93-21.01,10.27-33.11Zm-26.29,20.42c-10.28,3.27-11.63,5.35-10.07,14.66,.79,4.71,1.14,9.53,2.39,14.1,.95,3.49,3.01,6.68,4.58,10,1.03-.28,2.07-.55,3.1-.83v-37.93Zm29.11-46.76c.85-.14,1.7-.28,2.55-.43,0-7.18,.11-14.36-.03-21.54-.18-9.36-2.08-10.39-11.85-5.96,3.09,9.26,6.21,18.59,9.33,27.93Zm-67.26,117.69c5.29-2.39,8.82-3.75,12.08-5.58,1.09-.61,2.41-2.69,2.1-3.58-1.74-5.1-3.94-10.05-5.98-15.05l-1.87,.09c-1.95,7.41-3.89,14.83-6.34,24.12Zm138.3-149.35c-9.83-3.67-14.28-.26-12.79,9.19,4.22-3.03,8.29-5.96,12.79-9.19Zm-158.71,121.53c-5.73,4.17-3.19,12.53,4.82,17.42-1.72-6.22-3.21-11.61-4.82-17.42Z"/></g></svg>